<?xml version="1.0" encoding="UTF-8" standalone="no"?>
<svg
   t="1755532829391"
   class="icon"
   viewBox="0 0 1024 1024"
   version="1.1"
   p-id="20429"
   width="200"
   height="200"
   id="svg2"
   sodipodi:docname="AES.svg"
   xml:space="preserve"
   inkscape:version="1.4.2 (f4327f4, 2025-05-13)"
   xmlns:inkscape="http://www.inkscape.org/namespaces/inkscape"
   xmlns:sodipodi="http://sodipodi.sourceforge.net/DTD/sodipodi-0.dtd"
   xmlns="http://www.w3.org/2000/svg"
   xmlns:svg="http://www.w3.org/2000/svg"><defs
     id="defs2" /><sodipodi:namedview
     id="namedview2"
     pagecolor="#ffffff"
     bordercolor="#000000"
     borderopacity="0.25"
     inkscape:showpageshadow="2"
     inkscape:pageopacity="0.0"
     inkscape:pagecheckerboard="0"
     inkscape:deskcolor="#d1d1d1"
     inkscape:zoom="3.87"
     inkscape:cx="100"
     inkscape:cy="100"
     inkscape:window-width="1920"
     inkscape:window-height="1001"
     inkscape:window-x="-9"
     inkscape:window-y="-9"
     inkscape:window-maximized="1"
     inkscape:current-layer="svg2" /><path
     d="M921.6 307.2V230.4l-230.4-230.4H179.2c-23.3728 0-42.24 18.0736-51.2 51.2v256H102.4a51.2 51.2 0 0 0-51.2 51.2v435.2a51.2 51.2 0 0 0 51.2 51.2h25.6v128c8.8064 33.1264 27.6736 51.2 51.2 51.2h691.2c23.5776 0 42.3936-18.0736 51.2-51.2v-128h25.6a51.2 51.2 0 0 0 51.2-51.2V358.4a51.2 51.2 0 0 0-51.2-51.2h-25.6zM115.2 371.2h819.2v409.6h-819.2v-409.6zM665.6 64V230.4a25.6 25.6 0 0 0 25.6 25.6h166.4v51.2h-665.6V64H665.6z m204.8 896H192V844.8H870.4v115.2z"
     fill="#00C188"
     p-id="20430"
     id="path1"
     style="fill:#1296db;fill-opacity:1" /><path
     d="M262.3744 710.9376l9.8816-47.9744h59.0592l8.192 47.9744h60.5952l-65.7408-295.68h-62.1056L204.8 710.9376h57.5744z m60.416-92.928h-41.984c14.1568-78.464 21.6576-123.264 22.5024-134.4512l19.456 134.4256z m282.4704 92.928v-47.616h-67.2512v-84.992h67.2512v-45.7472h-67.2512v-70.8352h67.2512V415.232h-124.8256v295.68h124.8256z m156.6976 5.8624c25.472 0 45.6448-7.5776 60.5184-22.784 14.8736-15.1552 22.3232-35.712 22.3232-61.6704 0-15.872-3.712-30.4128-11.1104-43.648-7.424-13.2096-20.1728-27.6992-38.2976-43.4432a1277.568 1277.568 0 0 1-14.0544-11.52c-25.1904-20.6592-37.7856-38.0416-37.7856-52.1472 0-8.064 2.304-14.5408 6.912-19.456a23.7568 23.7568 0 0 1 18.176-7.3728c7.936 0 14.3872 3.072 19.2512 9.2416 4.864 6.1952 8.0128 15.2576 9.4208 27.2128l47.104-16.2304c-4.0448-21.5552-12.8-37.8368-26.3168-48.8448-13.4912-11.008-31.3088-16.5376-53.4784-16.5376-23.168 0-41.8816 7.0656-56.1408 21.1712-14.2336 14.08-21.376 32.6656-21.376 55.7312 0 15.872 4.2496 30.6944 12.7488 44.4928 8.4736 13.7728 24.7552 30.8224 48.8192 51.0976 17.4848 14.7456 28.672 25.8304 33.536 33.2544 4.864 7.424 7.296 15.3088 7.296 23.6032 0 8.832-2.3552 15.9488-7.1168 21.3504a23.4752 23.4752 0 0 1-18.5088 8.1408c-8.6272 0-15.7184-3.3792-21.2992-10.112-5.5552-6.7328-9.1136-16.2816-10.624-28.6208l-50.9184 13.5936c3.3024 23.168 12.0064 41.216 26.112 54.144 14.1312 12.9024 32.4096 19.3536 54.8096 19.3536z"
     fill="#00C188"
     p-id="20431"
     id="path2"
     style="fill:#1296db;fill-opacity:1" /></svg>
