<?xml version="1.0" standalone="no"?><!DOCTYPE svg PUBLIC "-//W3C//DTD SVG 1.1//EN" "http://www.w3.org/Graphics/SVG/1.1/DTD/svg11.dtd"><svg t="1755483727825" class="icon" viewBox="0 0 1024 1024" version="1.1" xmlns="http://www.w3.org/2000/svg" p-id="5987" xmlns:xlink="http://www.w3.org/1999/xlink" width="200" height="200"><path d="M66.4 0v558.56C69.76 737.28 215.68 856.48 368 944l144 80 144-80c160-77.76 297.76-206.24 300.96-384.96V0z m859.2 555.04v3.04c-3.36 192-178.72 305.92-283.04 356.64l-1.6 0.8L512 987.36l-128-71.68c-192-109.92-282.56-224-284.96-357.76V32h827.2z" fill="#3387FF" p-id="5988"></path><path d="M381.28 534.72h41.28l12.8 38.88h24.64l-48-136h-20.96l-45.44 136h23.36z m20.16-64l14.56 42.56h-28.16zM564.8 550.24h-68.16v-35.2h61.44v-23.2h-61.44v-30.72h65.6v-23.36h-87.52v135.84h90.08v-23.36zM650.24 547.84a23.52 23.52 0 0 1-7.52 3.52 36.48 36.48 0 0 1-9.76 1.28 34.08 34.08 0 0 1-10.08-1.44 25.28 25.28 0 0 1-8.48-4.48 26.4 26.4 0 0 1-6.4-7.68 32 32 0 0 1-3.68-10.88h-21.6a64 64 0 0 0 4.32 19.36 44.16 44.16 0 0 0 9.76 15.04 42.88 42.88 0 0 0 16 9.76 60.8 60.8 0 0 0 20.8 3.68 49.6 49.6 0 0 0 17.92-3.2 43.2 43.2 0 0 0 14.24-8.8 39.52 39.52 0 0 0 9.28-13.44 46.56 46.56 0 0 0 1.28-31.04 34.08 34.08 0 0 0-5.6-10.4 34.72 34.72 0 0 0-8.32-7.52 62.24 62.24 0 0 0-10.08-5.12 92.48 92.48 0 0 0-10.88-3.68l-10.88-2.88a95.04 95.04 0 0 1-10.24-3.04 33.12 33.12 0 0 1-7.04-3.36 11.84 11.84 0 0 1-4-4 10.4 10.4 0 0 1-1.28-5.28 13.28 13.28 0 0 1 5.6-11.36 27.52 27.52 0 0 1 16-4.16 21.76 21.76 0 0 1 23.84 19.36h21.44a52.96 52.96 0 0 0-4.48-17.92 40.96 40.96 0 0 0-9.76-13.44 42.4 42.4 0 0 0-14.08-8.32 51.2 51.2 0 0 0-17.6-2.88 50.56 50.56 0 0 0-17.6 2.88 40.32 40.32 0 0 0-13.6 8.16 36.48 36.48 0 0 0-8.8 12.48 39.52 39.52 0 0 0-3.2 16 41.6 41.6 0 0 0 2.24 14.24 29.12 29.12 0 0 0 6.88 10.88 42.08 42.08 0 0 0 12 8.16 92.48 92.48 0 0 0 17.44 5.92q8.8 2.24 14.88 4.16a48 48 0 0 1 9.76 4.16 13.12 13.12 0 0 1 7.04 12.32 16 16 0 0 1-1.76 7.52 16 16 0 0 1-4 5.44z" fill="#3387FF" p-id="5989"></path><path d="M738.08 348.16h-42.24v-56.32a179.52 179.52 0 1 0-359.04 0v56.32h-50.88v315.04h452.16zM368 291.84a147.52 147.52 0 1 1 295.04 0v56.32H368z m338.08 339.36H317.92V380.16h388.16z" fill="#3387FF" p-id="5990"></path></svg>