<?xml version="1.0" standalone="no"?><!DOCTYPE svg PUBLIC "-//W3C//DTD SVG 1.1//EN" "http://www.w3.org/Graphics/SVG/1.1/DTD/svg11.dtd"><svg t="1755484557787" class="icon" viewBox="0 0 1024 1024" version="1.1" xmlns="http://www.w3.org/2000/svg" p-id="9041" xmlns:xlink="http://www.w3.org/1999/xlink" width="200" height="200"><path d="M159.744 888.832V135.168h360.448v196.608c0 17.92 14.848 32.768 32.768 32.768h196.608v158.208h65.536V299.008h-1.024c0.512-9.728-2.56-19.456-9.728-26.112L610.304 79.36c-7.168-7.168-16.896-10.24-27.136-9.216H159.744a65.335 65.335 0 0 0-65.536 65.536v753.152a65.335 65.335 0 0 0 65.536 65.536h392.192v-65.536H159.744zM585.728 151.04l148.48 147.968h-148.48V151.04z" p-id="9042" fill="#1296db"></path><path d="M916.48 669.184h-36.352v-4.096c0-58.88-47.616-106.496-105.984-106.496H757.76c-58.88 0-106.496 47.616-106.496 106.496v4.096h-35.84c-15.872 0-29.184 12.8-29.184 29.184v214.016c0 15.872 12.8 29.184 29.184 29.184H916.48c15.872 0 29.184-12.8 29.184-29.184V698.368c0-15.872-13.312-29.184-29.184-29.184zM694.784 665.6c0-34.816 28.672-62.464 64-62.464h14.848c35.328 0 64 28.16 64 62.464 0 2.048-1.536 3.584-3.584 3.584H699.392c-2.56 0-4.608-1.536-4.608-3.584z m197.632 228.352H639.488v-176.64h252.928v176.64z m-126.464-161.28c-9.728 0-17.408 7.68-17.408 17.408v110.592c0 9.728 7.68 17.408 17.408 17.408s17.408-7.68 17.408-17.408V750.08c0-9.728-8.192-17.408-17.408-17.408zM227.328 716.8h37.888c8.704 0.512 17.408-0.512 26.112-2.048 4.096-1.536 7.68-4.608 9.216-8.192 2.048-6.144 3.072-12.288 3.072-18.944V675.84c0.512-6.144-1.024-12.8-4.096-18.432-4.096-4.608-9.216-7.68-15.36-8.704 5.12-0.512 9.728-3.072 13.824-6.656 2.56-4.608 4.096-10.24 3.584-15.36 0.512-8.192-1.024-16.384-5.12-23.552-3.072-4.608-7.68-8.192-12.8-9.728-7.68-2.048-15.872-2.56-23.552-2.56h-32.768V716.8z m39.936-103.936c1.536 0.512 2.56 1.536 3.072 3.072 1.024 2.56 1.024 5.632 1.024 8.192 0.512 4.608 0 9.216-1.536 13.824-1.536 2.048-3.584 2.56-6.144 2.56h-3.072v-28.16c2.048-0.512 4.096 0 6.656 0.512z m2.048 49.152c1.536 3.072 2.048 6.656 1.536 9.728v11.776c0.512 3.072 0 6.656-2.048 9.728-2.56 1.536-5.632 2.56-8.704 2.048v-35.328c3.072-0.512 6.656 0.512 9.216 2.048z m78.336-19.456c0-3.584 0-7.168 1.024-10.752 0.512-1.536 2.56-2.56 4.096-2.048 1.536 0 3.072 1.024 4.096 2.56 1.024 3.584 1.536 7.168 1.024 10.752 0 3.072 0 5.632-1.024 8.704-5.12 3.584-10.752 6.656-16.384 8.192-6.656 2.048-12.8 5.12-18.432 9.728-3.072 4.608-4.096 10.24-3.584 15.872v8.704c-1.024 7.68 1.536 14.848 7.168 20.48 4.608 3.072 9.728 4.608 15.36 4.608 7.68 0.512 14.848-4.096 18.432-11.264v9.216h30.72V665.6c0.512-11.264 0-22.528-1.536-33.792-1.024-5.632-4.608-10.752-9.728-13.824-14.336-7.168-31.232-7.68-46.08-0.512-4.608 2.56-8.704 6.656-11.264 11.264-2.048 6.144-3.072 12.288-2.56 18.432v7.168h29.696l-1.024-11.776z m10.24 46.592c0 3.072 0 6.656-1.024 9.728-1.024 1.536-2.56 2.048-4.096 2.048s-3.584-0.512-4.096-2.56c-1.024-3.584-1.536-6.656-1.024-10.24 0-3.584 0.512-7.168 1.024-10.752a21.691 21.691 0 0 1 8.704-9.216v20.992h0.512z m109.056-48.64c0-4.096 0-7.68-1.024-11.264-1.024-3.072-2.56-5.632-4.608-8.192-3.072-3.072-6.656-5.632-11.264-7.168-5.632-2.048-11.776-2.56-17.408-2.56-6.144 0-12.288 1.024-18.432 3.072-4.608 1.536-8.704 5.12-11.264 9.216-2.56 5.632-3.584 11.776-3.072 18.432 0 5.12 1.024 10.24 3.072 15.36 4.096 6.144 10.24 11.264 16.896 14.336 6.144 3.072 12.288 7.168 18.432 11.264 1.536 3.072 2.048 6.144 1.536 9.216 0 2.56 0 5.12-1.536 7.168-1.024 1.024-3.072 2.048-4.608 1.536-1.536 0-3.584-1.024-4.096-2.56-1.024-3.584-1.536-7.168-1.024-10.752v-6.656h-28.16v5.12c-0.512 6.656 0.512 13.312 3.072 19.456 2.56 4.608 6.656 8.192 11.776 10.24 6.656 2.56 13.312 4.096 20.48 3.584 6.144 0 12.8-1.024 18.432-3.584 4.608-2.048 8.704-5.632 10.752-9.728 2.56-6.144 3.584-12.8 3.072-18.944 0.512-6.144-1.024-12.288-4.096-17.408-5.12-5.632-11.264-9.728-17.92-12.8-4.608-2.048-9.216-4.608-13.824-7.68-1.536-1.024-3.072-3.072-4.096-5.12-0.512-2.048-0.512-4.608-0.512-7.168 0-2.048 0.512-3.584 1.536-5.12 1.024-1.024 2.56-2.048 4.096-1.536 1.536-0.512 3.072 0.512 4.096 2.048 0.512 3.072 1.024 6.144 1.024 9.216v5.632h28.16l0.512-6.656z m90.112 12.8c0.512-8.192-1.024-15.872-3.584-23.552-2.56-5.632-6.656-10.24-12.288-13.312-6.656-3.584-14.336-5.12-22.016-5.12-6.656 0-13.312 1.536-18.944 4.096-5.12 2.56-9.728 6.656-11.776 11.776-2.56 6.656-4.096 14.336-3.584 21.504v30.208c0 6.144 0.512 11.776 1.536 17.408 1.024 4.096 3.072 7.68 6.144 11.264 3.072 3.584 7.168 6.144 11.776 7.68 5.632 2.048 11.776 3.072 17.408 3.072s11.776-1.024 16.896-3.072c4.608-2.048 8.192-5.12 11.264-8.704 2.56-3.072 4.608-7.168 5.632-10.752 1.024-4.608 1.536-9.728 1.024-14.848v-7.68H527.36v13.824c0 3.584 0 7.168-1.024 10.24-1.024 2.048-2.56 3.072-4.608 2.56-1.536 0-3.072-0.512-4.096-2.048-1.024-3.072-1.024-6.144-1.024-9.216v-22.528h40.96l-0.512-12.8z m-40.448-3.072v-7.68c0-3.584 0-7.168 1.024-10.752 1.024-1.536 2.56-2.048 4.096-2.048s3.072 1.024 3.584 2.56c0.512 3.584 1.024 6.656 1.024 10.24v7.68h-9.728z m4.608-127.488H506.88v25.6h-34.816v-25.6h-74.24V494.08l56.832-111.616h39.424l-55.296 110.08h33.792V450.56h34.304v41.984h14.336v30.208z m-175.104 21.504c-18.432 7.68-39.936 7.68-58.368 0-7.68-3.584-14.336-9.728-18.432-16.896-4.608-8.192-6.656-17.92-6.144-27.136 0-6.656 1.024-12.8 2.56-18.944 1.536-7.168 4.096-13.824 7.168-19.968 0.512-1.024 1.024-2.048 1.536-3.584s1.024-2.048 1.536-3.072l37.376-71.68h39.424l-36.864 67.584c2.048-0.512 4.608-0.512 6.656-0.512 9.216-0.512 17.92 1.536 26.112 5.632 7.168 3.584 12.8 9.728 16.384 16.896 4.096 8.192 6.144 17.408 5.632 26.624 0.512 9.728-2.048 18.944-6.144 27.648-4.096 7.68-10.752 13.824-18.432 17.408z m-10.24-43.008c0.512-5.632-1.536-11.264-5.12-15.872-3.584-4.096-8.704-5.632-14.336-5.632-5.12-0.512-10.752 1.536-14.336 5.632-3.584 4.608-5.12 10.24-5.12 15.872-0.512 5.12 1.536 10.24 5.12 13.824 8.192 6.656 19.968 6.144 28.672 0 3.584-3.584 5.632-8.704 5.12-13.824z" p-id="9043" fill="#1296db"></path></svg>