<?xml version="1.0" encoding="UTF-8" standalone="no"?>
<!-- Created with Inkscape (http://www.inkscape.org/) -->

<svg
   width="32"
   height="32"
   viewBox="0 0 32 32"
   version="1.1"
   id="svg1"
   inkscape:version="1.4.2 (f4327f4, 2025-05-13)"
   sodipodi:docname="myLogo.svg"
   xmlns:inkscape="http://www.inkscape.org/namespaces/inkscape"
   xmlns:sodipodi="http://sodipodi.sourceforge.net/DTD/sodipodi-0.dtd"
   xmlns="http://www.w3.org/2000/svg"
   xmlns:svg="http://www.w3.org/2000/svg">
  <sodipodi:namedview
     id="namedview1"
     pagecolor="#ffffff"
     bordercolor="#000000"
     borderopacity="0.25"
     inkscape:showpageshadow="2"
     inkscape:pageopacity="0.0"
     inkscape:pagecheckerboard="0"
     inkscape:deskcolor="#d1d1d1"
     inkscape:document-units="px"
     showguides="true"
     inkscape:zoom="24.1875"
     inkscape:cx="15.979328"
     inkscape:cy="15.917313"
     inkscape:window-width="1920"
     inkscape:window-height="1001"
     inkscape:window-x="-9"
     inkscape:window-y="-9"
     inkscape:window-maximized="1"
     inkscape:current-layer="layer1">
    <sodipodi:guide
       position="0,32"
       orientation="0,32"
       id="guide12"
       inkscape:locked="false" />
    <sodipodi:guide
       position="32,32"
       orientation="32,0"
       id="guide13"
       inkscape:locked="false" />
    <sodipodi:guide
       position="32,0"
       orientation="0,-32"
       id="guide14"
       inkscape:locked="false" />
    <sodipodi:guide
       position="0,0"
       orientation="-32,0"
       id="guide15"
       inkscape:locked="false" />
  </sodipodi:namedview>
  <defs
     id="defs1">
    <inkscape:path-effect
       effect="bspline"
       id="path-effect17"
       is_visible="true"
       lpeversion="1.3"
       weight="33.333333"
       steps="2"
       helper_size="0"
       apply_no_weight="true"
       apply_with_weight="true"
       only_selected="false"
       uniform="false" />
  </defs>
  <g
     inkscape:label="图层 1"
     inkscape:groupmode="layer"
     id="layer1">
    <circle
       style="fill:#826cbd;fill-opacity:1"
       id="path1"
       cx="16"
       cy="16"
       r="14" />
    <circle
       style="fill:#000000;fill-opacity:1"
       id="path6"
       cx="16"
       cy="16"
       r="1" />
    <path
       d="m 19.950904,9.8578816 a 8,8 0 0 0 -7.999999,7.9999994 8,8 0 0 0 7.999999,8 8,8 0 0 0 8,-8 8,8 0 0 0 -8,-7.9999994 z m 0.101563,1.9589854 a 6,6 0 0 1 6,5.999999 6,6 0 0 1 -6,6 6,6 0 0 1 -6,-6 6,6 0 0 1 6,-5.999999 z"
       style="display:inline;fill:#fffffe;fill-opacity:1"
       id="path15-8"
       inkscape:label="path15" />
    <path
       d="m 12,6 c -4.4182775,3e-7 -7.999999,3.5817218 -7.9999994,7.9999993 0,4.418278 3.5817216,8 7.9999994,8 4.418278,0 8,-3.581722 8,-8 0,-4.4182777 -3.581722,-7.9999993 -8,-7.9999993 z m 0,2 c 3.313708,0 6,2.6862913 6,5.9999996 0,3.313708 -2.686292,6 -6,6 -3.313708,0 -5.9999999,-2.686292 -5.9999999,-6 2e-7,-3.3137083 2.6862919,-5.9999995 5.9999999,-5.9999996 z"
       style="display:inline;opacity:0.7;fill:#c5c4d6"
       id="path15"
       inkscape:label="path15"
       sodipodi:nodetypes="ssssssssss" />
  </g>
</svg>
