<?xml version="1.0" standalone="no"?><!DOCTYPE svg PUBLIC "-//W3C//DTD SVG 1.1//EN" "http://www.w3.org/Graphics/SVG/1.1/DTD/svg11.dtd"><svg t="1755484654966" class="icon" viewBox="0 0 1024 1024" version="1.1" xmlns="http://www.w3.org/2000/svg" p-id="10967" xmlns:xlink="http://www.w3.org/1999/xlink" width="200" height="200"><path d="M507.904 263.099733c-79.803733 0-144.725333 64.9216-144.725333 144.725334 0 67.584 46.830933 126.1568 112.776533 141.038933v167.389867a31.812267 31.812267 0 0 0 63.556267 0V548.727467a144.452267 144.452267 0 0 0 112.776533-141.1072 144.384 144.384 0 0 0-144.452267-144.520534z m0 225.4848a80.964267 80.964267 0 1 1 0-161.928533 80.964267 80.964267 0 0 1 0 161.928533z" fill="#1296db" p-id="10968"></path><path d="M899.4816 131.6864h-0.136533c-32.5632-1.570133-64.989867-4.778667-97.28-9.557333A691.950933 691.950933 0 0 1 541.559467 9.693867 49.3568 49.3568 0 0 0 507.904 0.682667c-1.6384-0.136533-3.208533-0.273067-4.778667-0.273067-10.513067 0-20.48 3.2768-29.149866 9.352533a690.858667 690.858667 0 0 1-260.573867 112.298667 969.386667 969.386667 0 0 1-97.348267 9.557333 49.7664 49.7664 0 0 0-47.377066 49.834667v349.252267c0 49.425067 24.029867 116.667733 67.925333 189.44l0.682667 1.024c43.8272 74.274133 101.376 143.633067 161.928533 195.3792 72.021333 61.6448 143.906133 94.208 208.008533 94.208h1.4336c63.965867 0 135.850667-32.5632 207.872-94.208 60.416-51.746133 117.828267-120.968533 161.792-195.106134l0.8192-1.365333c43.758933-72.840533 67.857067-140.219733 67.857067-189.508267V181.4528a49.834667 49.834667 0 0 0-47.445333-49.834667zM193.536 690.9952a38.980267 38.980267 0 0 0-2.6624-4.369067l-0.477867-0.887466a143.7696 143.7696 0 0 0-2.935466-4.778667c-32.699733-56.046933-51.336533-106.496-51.336534-138.4448v-346.112c30.037333-2.048 60.416-6.007467 90.112-12.014933 84.855467-13.175467 201.796267-43.008 281.3952-111.274667 79.803733 68.1984 196.608 98.0992 281.463467 111.274667 29.764267 5.870933 59.869867 9.966933 90.112 12.0832v346.180266c0 31.812267-18.6368 82.261333-51.336533 138.376534l-2.935467 4.778666-0.477867 0.955734a34.6112 34.6112 0 0 0-2.6624 4.369066l-2.8672 4.846934a807.867733 807.867733 0 0 1-86.493866 114.688l-0.682667 0.682666-0.682667 0.750934c-78.984533 84.104533-162.542933 134.690133-223.232 135.099733-60.893867-0.4096-144.452267-50.9952-223.6416-135.168-0.273067-0.273067-0.4096-0.546133-0.682666-0.682667a35.089067 35.089067 0 0 0-3.2768-3.140266 810.8032 810.8032 0 0 1-82.807467-110.523734l-3.8912-6.690133z" fill="#1296db" p-id="10969"></path></svg>