<?xml version="1.0" encoding="UTF-8" standalone="no"?>
<svg
   t="1755484654966"
   class="icon"
   viewBox="0 0 1024 1024"
   version="1.1"
   p-id="10967"
   width="200"
   height="200"
   id="svg2"
   sodipodi:docname="Password.svg"
   xml:space="preserve"
   inkscape:version="1.4.2 (f4327f4, 2025-05-13)"
   xmlns:inkscape="http://www.inkscape.org/namespaces/inkscape"
   xmlns:sodipodi="http://sodipodi.sourceforge.net/DTD/sodipodi-0.dtd"
   xmlns="http://www.w3.org/2000/svg"
   xmlns:svg="http://www.w3.org/2000/svg"><defs
     id="defs2" /><sodipodi:namedview
     id="namedview2"
     pagecolor="#ffffff"
     bordercolor="#000000"
     borderopacity="0.25"
     inkscape:showpageshadow="2"
     inkscape:pageopacity="0.0"
     inkscape:pagecheckerboard="0"
     inkscape:deskcolor="#d1d1d1"
     inkscape:zoom="3.87"
     inkscape:cx="111.36951"
     inkscape:cy="100"
     inkscape:window-width="1920"
     inkscape:window-height="1001"
     inkscape:window-x="-9"
     inkscape:window-y="-9"
     inkscape:window-maximized="1"
     inkscape:current-layer="svg2" /><path
     d="M507.904 263.099733c-79.803733 0-144.725333 64.9216-144.725333 144.725334 0 67.584 46.830933 126.1568 112.776533 141.038933v167.389867a31.812267 31.812267 0 0 0 63.556267 0V548.727467a144.452267 144.452267 0 0 0 112.776533-141.1072 144.384 144.384 0 0 0-144.452267-144.520534z m0 225.4848a80.964267 80.964267 0 1 1 0-161.928533 80.964267 80.964267 0 0 1 0 161.928533z"
     fill="#1296db"
     p-id="10968"
     id="path1" /><path
     d="m 503.13,0.41 c -10.51307,0 -20.48013,3.274267 -29.15,9.35 a 690.85867,690.85867 0 0 1 -260.58,112.3 969.38667,969.38667 0 0 1 -97.35,9.56 49.7664,49.7664 0 0 0 -47.37,49.83 v 349.26 c 0,49.42507 24.024534,116.66773 67.92,189.44 l 0.68,1.02 c 43.8272,74.27413 101.37747,143.63387 161.93,195.38 72.02133,61.6448 143.9076,94.21 208.01,94.21 h 1.43 c 54.17818,0 114.03867,-23.36477 174.85,-67.97 a 197.12,197.12 0 0 1 -47.3,-47.17 c -47.0813,32.9299 -91.85498,51.33362 -128.36,51.58 -60.89387,-0.4096 -144.46067,-50.9972 -223.65,-135.17 -0.27307,-0.27307 -0.40693,-0.54347 -0.68,-0.68 a 35.089067,35.089067 0 0 0 -3.28,-3.14 810.8032,810.8032 0 0 1 -82.8,-110.52 L 193.54,691 a 38.980267,38.980267 0 0 0 -2.67,-4.37 l -0.47,-0.89 a 143.7696,143.7696 0 0 0 -2.94,-4.78 C 154.76027,624.91307 136.12,574.4688 136.12,542.52 V 196.4 c 30.03733,-2.048 60.424,-6.00253 90.12,-12.01 84.85547,-13.17547 201.79107,-43.01333 281.39,-111.28 79.80373,68.1984 196.60453,98.10453 281.46,111.28 29.76427,5.87093 59.87787,9.96373 90.12,12.08 v 346.18 c 0,14.74531 -4.00755,33.49841 -11.56,54.96 a 197.12,197.12 0 0 1 56.38,33.28 C 939.05887,593.08358 947,558.85053 947,530.57 V 181.45 a 49.834667,49.834667 0 0 0 -47.45,-49.83 l -0.07,0.07 h -0.13 c -32.5632,-1.57013 -64.98987,-4.78133 -97.28,-9.56 A 691.95093,691.95093 0 0 1 541.56,9.69 49.3568,49.3568 0 0 0 507.9,0.68 c -1.6384,-0.136533 -3.19987,-0.27 -4.77,-0.27 z"
     style="display:inline;fill:#1296db"
     id="path21" /><path
     d="m 951.41916,782.14224 c 0,-14.50787 -2.52303,-28.43306 -6.98696,-41.58193 l 45.69649,-40.33032 -19.31116,-30.52915 -61.31067,16.00187 c -20.55332,-19.93226 -47.4044,-34.43021 -77.66184,-40.8056 l -15.51667,-56.60435 h -38.61291 l -15.50718,56.59443 c -30.25744,6.38531 -57.09903,20.86385 -77.65235,40.81552 l -61.32054,-16.00231 -19.3112,30.52916 45.68699,40.33032 c -4.44449,13.1493 -6.97748,27.0939 -6.97748,41.58194 0,14.21631 2.42603,27.88963 6.71525,40.81552 l -45.42476,40.09742 19.3112,30.52916 60.5537,-15.79831 c 20.71807,20.40754 47.94783,35.24536 78.7198,41.67898 l 15.20657,55.527 h 38.61248 l 15.21606,-55.51709 c 30.73272,-6.44353 57.98232,-21.25202 78.69048,-41.7083 l 60.57312,15.81772 19.31116,-30.52916 -45.34706,-40.02928 c 4.28917,-12.95478 6.64704,-26.65743 6.64704,-40.88366 z M 797.02664,887.87832 c -63.882,0 -115.66361,-47.33669 -115.66361,-105.73608 0,-58.39938 51.78118,-105.73607 115.66361,-105.73607 63.88243,0 115.66361,47.33669 115.66361,105.73607 0,58.39939 -51.78118,105.73608 -115.66361,105.73608 z m 0,-158.60412 c -31.94595,0 -57.83655,23.66857 -57.83655,52.86804 0,29.19948 25.8906,52.86805 57.83655,52.86805 31.93604,0 57.84647,-23.66814 57.84647,-52.86805 0,-29.1999 -25.91,-52.86804 -57.84647,-52.86804 z"
     p-id="17370"
     id="path1-0"
     style="display:inline;fill:#1296db;fill-opacity:1;stroke-width:0.431294" /></svg>
