<?xml version="1.0" encoding="UTF-8" standalone="no"?>
<svg
   t="1755483727825"
   class="icon"
   viewBox="0 0 1024 1024"
   version="1.1"
   p-id="5987"
   width="200"
   height="200"
   id="svg3"
   sodipodi:docname="AES加密-copy - 副本.svg"
   inkscape:version="1.4.2 (f4327f4, 2025-05-13)"
   xmlns:inkscape="http://www.inkscape.org/namespaces/inkscape"
   xmlns:sodipodi="http://sodipodi.sourceforge.net/DTD/sodipodi-0.dtd"
   xmlns="http://www.w3.org/2000/svg"
   xmlns:svg="http://www.w3.org/2000/svg">
  <defs
     id="defs3">
    <rect
       x="68.217054"
       y="85.788114"
       width="58.139535"
       height="29.715762"
       id="rect4" />
    <rect
       x="67.5"
       y="85.061375"
       width="64.997021"
       height="30.442501"
       id="rect3" />
  </defs>
  <sodipodi:namedview
     id="namedview3"
     pagecolor="#ffffff"
     bordercolor="#000000"
     borderopacity="0.25"
     inkscape:showpageshadow="2"
     inkscape:pageopacity="0.0"
     inkscape:pagecheckerboard="0"
     inkscape:deskcolor="#d1d1d1"
     inkscape:zoom="7.74"
     inkscape:cx="113.24289"
     inkscape:cy="101.67959"
     inkscape:window-width="1920"
     inkscape:window-height="1001"
     inkscape:window-x="-9"
     inkscape:window-y="-9"
     inkscape:window-maximized="1"
     inkscape:current-layer="svg3" />
  <path
     d="M66.4 0v558.56C69.76 737.28 215.68 856.48 368 944l144 80 144-80c160-77.76 297.76-206.24 300.96-384.96V0z m859.2 555.04v3.04c-3.36 192-178.72 305.92-283.04 356.64l-1.6 0.8L512 987.36l-128-71.68c-192-109.92-282.56-224-284.96-357.76V32h827.2z"
     fill="#3387FF"
     p-id="5988"
     id="path1" />
  <path
     d="M738.08 348.16h-42.24v-56.32a179.52 179.52 0 1 0-359.04 0v56.32h-50.88v315.04h452.16zM368 291.84a147.52 147.52 0 1 1 295.04 0v56.32H368z m338.08 339.36H317.92V380.16h388.16z"
     fill="#3387FF"
     p-id="5990"
     id="path3" />
  <text
     xml:space="preserve"
     transform="matrix(7.0065708,0,0,7.9078152,-145.58525,-275.67126)"
     id="text3"
     style="font-style:normal;font-variant:normal;font-weight:normal;font-stretch:normal;font-size:23.84520346px;font-family:Arial;-inkscape-font-specification:Arial;text-align:start;writing-mode:lr-tb;direction:ltr;white-space:pre;shape-inside:url(#rect4);fill:#3387ff;stroke-width:0.1;stroke-linecap:round;fill-opacity:1"><tspan
       x="68.216797"
       y="107.26773"
       id="tspan1">RSA</tspan></text>
</svg>
