<?xml version="1.0" encoding="UTF-8" standalone="no"?>
<svg
   version="1.1"
   viewBox="0 0 48 48"
   xml:space="preserve"
   id="svg21"
   sodipodi:docname="MyWebLogo.svg"
   inkscape:version="1.4.2 (f4327f4, 2025-05-13)"
   xmlns:inkscape="http://www.inkscape.org/namespaces/inkscape"
   xmlns:sodipodi="http://sodipodi.sourceforge.net/DTD/sodipodi-0.dtd"
   xmlns="http://www.w3.org/2000/svg"
   xmlns:svg="http://www.w3.org/2000/svg"><defs
     id="defs21" /><sodipodi:namedview
     id="namedview21"
     pagecolor="#ffffff"
     bordercolor="#000000"
     borderopacity="0.25"
     inkscape:showpageshadow="2"
     inkscape:pageopacity="0.0"
     inkscape:pagecheckerboard="0"
     inkscape:deskcolor="#d1d1d1"
     inkscape:zoom="16.125"
     inkscape:cx="23.968992"
     inkscape:cy="24"
     inkscape:window-width="1920"
     inkscape:window-height="1001"
     inkscape:window-x="-9"
     inkscape:window-y="-9"
     inkscape:window-maximized="1"
     inkscape:current-layer="svg21" /><path
     d="m24 9.0204v0.82324h-1.6348s-2.2923-0.05924-3.4277 0.0703c-0.9834 0.1122-1.9857 0.24552-2.9062 0.60938-0.8673 0.3428-1.7735 0.75398-2.3906 1.4531-0.6063 0.687-0.94899 1.6087-1.125 2.5078-0.1712 0.8745-0.15804 1.817 0.09375 2.6719 0.28982 0.98385 0.85977 1.9086 1.5762 2.6426 0.93435 0.95733 1.8658 1.5363 3.3955 2.1387v5.3057h-6.3721v3.2373h3e-3c1.6442 8.28e-4 3.2554 0.49393 4.6523 1.4238-0.0049 2e-3 -0.0098 0.0039-0.0147 0.0058a8.8632 9.4718 0 0 1 4.1807 7.9512 2.6346 2.7891 0 0 1 2.335 2.7334v0.03809a2.6346 2.7891 0 0 1-0.02344 0.36328 2.6346 2.7891 0 0 1-0.17578 0.70312 2.6346 2.7891 0 0 1-2.4258 1.7227l-1.1104 0.04687h10.799l-1.1104-0.04687a2.6346 2.7891 0 0 1-2.625-2.7891v-0.03808a2.6346 2.7891 0 0 1 2.335-2.7334 8.8632 9.4718 0 0 1 4.1807-7.9512c-5e-3 -2e-3 -0.0098-0.0039-0.0147-0.0059 1.3953-0.92878 3.0044-1.4218 4.6465-1.4238v-7.7431h-6.375v-0.79982c1.5297-0.6024 2.4611-1.1814 3.3955-2.1387 0.71643-0.73395 1.2864-1.6587 1.5762-2.6426 0.25179-0.85485 0.26494-1.7973 0.09375-2.6719-0.17601-0.8991-0.5187-1.8209-1.125-2.5078-0.61725-0.69914-1.5234-1.1103-2.3906-1.4531-0.92055-0.36386-1.9228-0.49718-2.9062-0.60938-1.1355-0.12954-3.4277-0.0703-3.4277-0.0703h-1.6347v-0.82325z"
     fill="#fff"
     stroke-linecap="round"
     stroke-width="3.7614"
     id="path1" /><path
     d="m36.837 5.3433a3 3 0 0 1-2.9898 3 3 3 0 0 1-3.01-2.9796 3 3 0 0 1 2.9694-3.0202 3 3 0 0 1 3.0303 2.959"
     stroke-width="1.5"
     id="path2"
     style="stroke:#75abd7;stroke-opacity:1;stroke-width:1;stroke-dasharray:none;stroke-linejoin:round;stroke-linecap:round;paint-order:normal" /><g
     transform="matrix(1.5 0 0 1.5 -12 -12.703)"
     id="g5"><rect
       x="28.297"
       y="26.632"
       width="4.2607"
       height="4.314"
       fill="#77acd9"
       id="rect2" /><rect
       x="19.721"
       y="26.632"
       width="4.2791"
       height="9.5853"
       fill="#9c9c9c"
       id="rect3" /><rect
       x="24"
       y="23.628"
       width="4.2975"
       height="3.0038"
       fill="#3f8dcd"
       opacity=".7"
       id="rect4" /><rect
       x="28.297"
       y="26.632"
       width="4.2607"
       height="4.314"
       fill="#75abd7"
       id="rect5" /></g><path
     d="m18.63 45.469 1.1104-0.04687a2.6346 2.7891 0 0 0 2.625-2.7891v-0.03808a2.6346 2.7891 0 0 0-2.335-2.7334 8.8632 9.4718 0 0 0-4.1807-7.9512c5e-3 -2e-3 0.0098-0.0039 0.0147-0.0059-1.397-0.9299-3.0082-1.423-4.6523-1.4238h-3e-3v7.8896a6.7749 6.9375 0 0 0 0 0.16113 6.7749 6.9375 0 0 0 5.9619 6.8408 6.7749 6.9375 0 0 0 0.75879 0.0498z"
     fill="#0d5998"
     stroke-width="3.8444"
     id="path5" /><path
     d="m36.841 30.48c-1.6421 2e-3 -3.2512 0.49505-4.6465 1.4238 0.0049 2e-3 0.0098 0.0039 0.0147 0.0059a8.8632 9.4718 0 0 0-4.1807 7.9512 2.6346 2.7891 0 0 0-2.335 2.7334v0.03809a2.6346 2.7891 0 0 0 2.625 2.7891l1.1104 0.04687 0.70019-0.04687a6.7749 6.9375 0 0 0 0.75879-0.0498 6.7749 6.9375 0 0 0 5.9619-6.8408 6.7749 6.9375 0 0 0 0-0.16113v-7.8896h-3e-3c-2e-3 1e-6 -0.0039-2e-6 -0.0058 0z"
     fill="#0d5998"
     stroke-width="3.8444"
     id="path6" /><path
     d="m17.204 5.3433a3 3 0 0 1-2.9898 3 3 3 0 0 1-3.01-2.9796 3 3 0 0 1 2.9694-3.0202 3 3 0 0 1 3.0303 2.959"
     stroke-width="1.5"
     id="path7"
     style="fill:#000000;fill-opacity:1;stroke:#75abd7;stroke-opacity:1;stroke-width:1;stroke-dasharray:none;stroke-linejoin:round;stroke-linecap:round" /><g
     transform="matrix(1.5 0 0 1.5 -12 -12.703)"
     id="g15"><path
       d="m24.031 9.4688v5.5625h1.0898s1.5282-0.03949 2.2852 0.04687c0.65562 0.0748 1.3238 0.16368 1.9375 0.40625 0.57816 0.22853 1.1823 0.50266 1.5938 0.96875 0.4042 0.45793 0.63266 1.0725 0.75 1.6719 0.11413 0.58305 0.10536 1.2113-0.0625 1.7812-0.19319 0.6559-0.57318 1.2724-1.0508 1.7617-0.62293 0.6382-1.2439 1.0242-2.2637 1.4258v0.5332h4.25l-2e-3 -6.2207c-0.13439-1.3872-0.07416-2.3402-0.80464-4.0215-0.57251-1.3177-1.6718-2.5566-3.4434-3.3691-0.47923-0.18112-1.1175-0.41587-2.3105-0.54688z"
       fill="#3585c4"
       style="mix-blend-mode:normal"
       id="path8" /><path
       d="m24 9.4688h-1.9688c-1.193 0.13101-1.8311 0.36575-2.3103 0.54688-1.7716 0.8125-2.871 2.0508-3.4435 3.3685-0.73049 1.6813-0.67016 2.6349-0.80459 4.0221l-0.0041 9.2255h4.2522v-3.538c-1.0198-0.4016-1.641-0.78758-2.2639-1.4258-0.4776-0.48932-0.85759-1.1058-1.0508-1.7617-0.16786-0.56991-0.17663-1.1982-0.0625-1.7812 0.11734-0.59942 0.3458-1.2139 0.75-1.6719 0.41141-0.4661 1.0156-0.74022 1.5938-0.96875 0.61368-0.24257 1.2819-0.33145 1.9375-0.40625 0.75697-0.08636 2.2852-0.04687 2.2852-0.04687h1.0898z"
       fill="#0d5998"
       id="path9" /><path
       d="m24 18.945s0.54901 0.46461 0.86719 0.625c0.2368 0.11937 0.49508 0.20619 0.75781 0.24219 0.13942 0.0191 0.28585 0.02041 0.42188-0.01563 0.0653-0.0173 0.13618-0.04207 0.17969-0.09375 0.04403-0.05229 0.06082-0.12698 0.0625-0.19531 2e-3 -0.08083-0.0075-0.17512-0.0625-0.23438-0.04315-0.04647-0.11761-0.04954-0.17969-0.0625-0.16619-0.03468-0.34195-0.0029-0.50781-0.03906-0.15455-0.03373-0.30346-0.09404-0.44531-0.16406-0.1354-0.06684-0.26294-0.15037-0.38281-0.24219-0.10389-0.07957-0.20345-0.16666-0.28906-0.26562-0.08766-0.10133-0.22656-0.33203-0.22656-0.33203l-0.19531 0.01172z"
       id="path10" /><path
       d="m26.047 15.508a2.0469 1.5859 0 0 1-2.0399 1.5859 2.0469 1.5859 0 0 1-2.0538-1.5752 2.0469 1.5859 0 0 1 2.026-1.5966 2.0469 1.5859 0 0 1 2.0675 1.5643"
       id="path11" /><path
       d="m24 18.945s-0.54901 0.46461-0.86719 0.625c-0.2368 0.11937-0.49508 0.20619-0.75781 0.24219-0.13942 0.0191-0.28585 0.02041-0.42188-0.01563-0.0653-0.0173-0.13618-0.04207-0.17969-0.09375-0.04403-0.05229-0.06082-0.12698-0.0625-0.19531-2e-3 -0.08083 0.0075-0.17512 0.0625-0.23438 0.04315-0.04647 0.11761-0.04954 0.17969-0.0625 0.16619-0.03468 0.34195-0.0029 0.50781-0.03906 0.15455-0.03373 0.30346-0.09404 0.44531-0.16406 0.1354-0.06684 0.26294-0.15037 0.38281-0.24219 0.10389-0.07957 0.20345-0.16666 0.28906-0.26562 0.08766-0.10133 0.22656-0.33203 0.22656-0.33203l0.19531 0.01172z"
       id="path12" /><path
       d="m23.805 18.168s0.12655-0.06641 0.19531-0.06641 0.19531 0.06641 0.19531 0.06641c-0.13064 0.0093-0.27879 0.39504-0.39062 0z"
       id="path13" /><path
       d="m21.657 13.855a0.75 0.75 0 0 1-0.74745 0.75 0.75 0.75 0 0 1-0.75253-0.7449 0.75 0.75 0 0 1 0.74234-0.75506 0.75 0.75 0 0 1 0.75757 0.73977"
       opacity=".8"
       id="path14" /><path
       d="m27.86 13.855a0.75 0.75 0 0 1-0.74745 0.75 0.75 0.75 0 0 1-0.75253-0.7449 0.75 0.75 0 0 1 0.74234-0.75506 0.75 0.75 0 0 1 0.75757 0.73977"
       opacity=".8"
       id="path15" /></g><g
     transform="matrix(1.5 0 0 1.5 -12 -12.703)"
     stroke-linecap="round"
     id="g21"><path
       d="m12.637 20.334c2.1649-1.1666 4.4821-1.9147 6.8598-2.4967 0.18834-0.04611 0.38228 0.02699 0.4486 0.20919 0.06631 0.18221-0.01848 0.41356-0.20918 0.4486-2.3091 0.4243-4.5614 1.1504-6.8451 2.4914-0.1672 0.09819-0.39696-0.02163-0.46328-0.20384s0.0385-0.35662 0.20918-0.4486z"
       fill="#80acd7"
       stroke-width=".1"
       id="path16" /><path
       d="m12.256 15.011c2.1191 0.50705 4.5134 1.0004 7.1891 1.2676 0.19294 0.01927 0.31757 0.21452 0.28391 0.40546-0.03368 0.19095-0.21682 0.32875-0.40546 0.2839-2.0853-0.4957-4.176-0.48006-7.1737-1.2649-0.18758-0.04911-0.33297-0.21722-0.29929-0.40817 0.03367-0.19096 0.21689-0.32903 0.40546-0.28391z"
       fill="#80acd7"
       stroke-width=".1"
       id="path17" /><path
       d="m13.229 17.754c1.8481-0.51159 3.7193-0.69546 5.5302-0.77721 0.14818-0.0067 0.28176 0.081 0.30241 0.22788 0.02064 0.14689-0.07987 0.29264-0.22788 0.30241-1.7068 0.11266-3.5662 0.19029-5.5183 0.77555-0.14209 0.0426-0.2936-0.07932-0.31424-0.22622-0.02065-0.14689 0.08493-0.26284 0.22788-0.30241z"
       fill="#9f9f9f"
       stroke-width=".0765"
       id="path18" /><path
       d="m35.363 20.334c-2.1649-1.1666-4.4821-1.9147-6.8598-2.4967-0.18834-0.04611-0.38228 0.02699-0.4486 0.20919-0.06631 0.18221 0.01848 0.41356 0.20918 0.4486 2.3091 0.4243 4.5614 1.1504 6.8451 2.4914 0.1672 0.09819 0.39696-0.02163 0.46328-0.20384s-0.0385-0.35662-0.20918-0.4486z"
       fill="#80acd7"
       stroke-width=".1"
       id="path19" /><path
       d="m35.744 15.011c-2.1191 0.50705-4.5134 1.0004-7.1891 1.2676-0.19294 0.01927-0.31757 0.21452-0.28391 0.40546 0.03368 0.19095 0.21682 0.32875 0.40546 0.2839 2.0853-0.4957 4.176-0.48006 7.1737-1.2649 0.18758-0.04911 0.33297-0.21722 0.29929-0.40817-0.03367-0.19096-0.21689-0.32903-0.40546-0.28391z"
       fill="#80acd7"
       stroke-width=".1"
       id="path20" /><path
       d="m34.771 17.754c-1.8481-0.51159-3.7193-0.69546-5.5302-0.77721-0.14818-0.0067-0.28176 0.081-0.30241 0.22788-0.02064 0.14689 0.07987 0.29264 0.22788 0.30241 1.7068 0.11266 3.5662 0.19029 5.5183 0.77555 0.14209 0.0426 0.2936-0.07932 0.31424-0.22622 0.02065-0.14689-0.08493-0.26284-0.22788-0.30241z"
       fill="#9f9f9f"
       stroke-width=".0765"
       id="path21" /></g></svg>
